<?xml version="1.0" standalone="no"?>
<!DOCTYPE svg PUBLIC "-//W3C//DTD SVG 20010904//EN"
 "http://www.w3.org/TR/2001/REC-SVG-20010904/DTD/svg10.dtd">
<svg version="1.0" xmlns="http://www.w3.org/2000/svg"
 width="21.5000000pt" height="20.0000000pt" viewBox="0 0 215.000000 200.000000"
 preserveAspectRatio="xMidYMid meet">
<metadata>
Created by potrace 1.16, written by Peter Selinger 2001-2019
</metadata>
<g transform="translate(0.000000,200.000000) scale(0.100000,-0.100000)"
fill="#fff" stroke="none">
<path d="M793 1719 c-224 -39 -385 -205 -416 -432 l-11 -84 -55 -29 c-163 -85
-263 -282 -233 -460 30 -183 163 -330 332 -368 101 -23 1276 -24 1364 -1 75
20 134 55 186 111 139 151 140 388 3 535 -55 59 -101 91 -164 112 -33 12 -43
20 -41 34 2 10 4 50 5 88 2 121 -67 228 -177 276 -71 31 -177 31 -237 1 l-44
-22 -30 37 c-43 56 -94 103 -145 135 -88 56 -234 85 -337 67z m321 -410 l26
-20 0 -226 0 -226 68 66 c38 36 81 69 96 73 41 10 80 -22 84 -71 3 -37 -1 -42
-140 -181 -188 -189 -167 -188 -349 -7 -76 75 -142 148 -147 162 -12 33 0 65
32 87 38 24 70 11 142 -58 l63 -60 3 217 3 217 28 24 c34 29 56 30 91 3z"/>
</g>
</svg>
